<svg version="1.2" xmlns="http://www.w3.org/2000/svg" viewBox="0 0 173 15" width="173" height="15"><style>.a{fill:#baa89b}</style><path class="a" d="m109.2 11h0.3c0.8 0 1.5 0.7 1.5 1.5 0 0.8-0.7 1.5-1.5 1.5h-0.3c-0.8 0-1.5-0.7-1.5-1.5 0-0.8 0.7-1.5 1.5-1.5z"/><path class="a" d="m114.2 11h4.9c0.8 0 1.5 0.7 1.5 1.5 0 0.8-0.7 1.5-1.5 1.5h-4.9c-0.8 0-1.5-0.7-1.5-1.5 0-0.8 0.7-1.5 1.5-1.5z"/><path class="a" d="m124.2 11h11.6c0.9 0 1.5 0.7 1.5 1.5 0 0.8-0.6 1.5-1.5 1.5h-11.6c-0.8 0-1.5-0.7-1.5-1.5 0-0.8 0.7-1.5 1.5-1.5z"/><path class="a" d="m141.5 11h30c0.8 0 1.5 0.7 1.5 1.5 0 0.8-0.7 1.5-1.5 1.5h-30c-0.8 0-1.5-0.7-1.5-1.5 0-0.8 0.7-1.5 1.5-1.5z"/><path class="a" d="m4.2 14h-3.5l4.7-11.9h2.9l4.8 11.9h-3.7l-1.9-5.2q-0.2-0.5-0.3-0.9-0.1-0.4-0.2-0.7-0.1-0.3-0.2-0.7-0.1-0.4-0.2-0.9h0.5q-0.1 0.5-0.2 0.9-0.1 0.4-0.2 0.7-0.1 0.3-0.2 0.7-0.2 0.4-0.4 0.9zm6.4-1.8h-7.6l1.1-2.5h5.5zm3.4 1.8v-9.1h3.2l0.1 1.8-0.7 0.2q0.2-0.6 0.7-1.1 0.4-0.5 1.1-0.8 0.7-0.3 1.5-0.3 1 0 1.7 0.4 0.7 0.5 1.1 1.3 0.4 0.8 0.4 2v5.6h-3.5v-5.3q0-0.4-0.1-0.7-0.1-0.2-0.4-0.3-0.2-0.2-0.5-0.2-0.3 0-0.5 0.1-0.2 0.1-0.4 0.2-0.1 0.2-0.2 0.4-0.1 0.2-0.1 0.4v5.4h-1.7q-0.7 0-1.1 0-0.4 0-0.6 0zm20.7 0h-3.4v-9.1h3.4zm-1.7-10.7q-0.9 0-1.4-0.5-0.6-0.4-0.6-1.2 0-0.7 0.6-1.1 0.5-0.5 1.4-0.5 0.9 0 1.4 0.4 0.6 0.4 0.6 1.2 0 0.7-0.6 1.2-0.5 0.5-1.4 0.5zm7.4 10.9q-1.2 0-2-0.6-0.9-0.6-1.4-1.7-0.5-1-0.5-2.4 0-1.4 0.5-2.5 0.5-1.1 1.4-1.7 0.9-0.6 2-0.6 0.6 0 1.1 0.2 0.6 0.1 1 0.5 0.4 0.2 0.7 0.6 0.3 0.4 0.4 0.9l-0.7 0.2v-5.7h3.4v12.6h-3.1l-0.3-2 0.7 0.2q0 0.4-0.3 0.8-0.3 0.3-0.8 0.6-0.4 0.3-1 0.4-0.5 0.2-1.1 0.2zm1-2.8q0.5 0 0.8-0.2 0.4-0.3 0.6-0.7 0.1-0.4 0.1-1 0-0.6-0.1-1.1-0.2-0.4-0.6-0.6-0.3-0.3-0.8-0.3-0.5 0-0.8 0.3-0.4 0.2-0.6 0.6-0.1 0.5-0.1 1.1 0 0.6 0.1 1 0.2 0.4 0.6 0.7 0.3 0.2 0.8 0.2zm11.5 2.8q-1.5 0-2.7-0.6-1.1-0.7-1.7-1.7-0.6-1.1-0.6-2.5 0-1 0.3-1.8 0.3-0.9 0.9-1.5 0.7-0.7 1.5-1 0.9-0.4 1.9-0.4 1 0 1.8 0.4 0.8 0.3 1.4 1 0.6 0.6 0.9 1.5 0.3 0.8 0.3 1.8v0.8h-7.1l-0.4-1.7h4.7l-0.3 0.4v-0.3q0-0.3-0.1-0.6-0.2-0.2-0.5-0.4-0.3-0.1-0.7-0.1-0.5 0-0.8 0.2-0.3 0.2-0.5 0.6-0.2 0.3-0.2 0.9 0 0.6 0.3 1 0.2 0.5 0.7 0.8 0.6 0.2 1.3 0.2 0.5 0 0.9-0.1 0.4-0.1 0.8-0.4l1.6 2.2q-0.7 0.5-1.3 0.8-0.6 0.2-1.2 0.4-0.6 0.1-1.2 0.1zm8.8 0q-1.1 0-2-0.6-0.9-0.7-1.4-1.7-0.5-1.1-0.5-2.5 0-1.3 0.5-2.4 0.5-1.1 1.4-1.7 0.9-0.6 2.1-0.6 0.6 0 1.1 0.2 0.5 0.2 0.9 0.5 0.4 0.3 0.7 0.7 0.3 0.4 0.5 0.8h-0.7v-2h3.4v9.1h-3.5v-2.2h0.8q-0.2 0.5-0.5 1-0.3 0.4-0.7 0.7-0.4 0.3-0.9 0.5-0.5 0.2-1.2 0.2zm1-2.8q0.5 0 0.9-0.3 0.3-0.2 0.5-0.6 0.2-0.4 0.2-1.1 0-0.6-0.2-1-0.2-0.4-0.5-0.7-0.4-0.2-0.9-0.2-0.5 0-0.8 0.2-0.3 0.3-0.5 0.7-0.2 0.4-0.2 1 0 0.7 0.2 1.1 0.2 0.4 0.5 0.6 0.3 0.3 0.8 0.3zm17.2 2.6h-3.4v-11.4h3.4zm1.5-6.2h-6.3v-2.9h6.3zm5.9 6.4q-1.5 0-2.6-0.6-1.2-0.6-1.9-1.7-0.6-1.1-0.6-2.4 0-1.4 0.6-2.5 0.7-1 1.9-1.6 1.1-0.7 2.6-0.7 1.5 0 2.6 0.7 1.2 0.6 1.8 1.6 0.7 1.1 0.7 2.5 0 1.3-0.7 2.4-0.6 1.1-1.8 1.7-1.1 0.6-2.6 0.6zm0-2.9q0.5 0 0.8-0.2 0.4-0.3 0.6-0.7 0.2-0.4 0.2-0.9 0-0.6-0.2-1-0.2-0.4-0.6-0.6-0.3-0.3-0.8-0.3-0.5 0-0.9 0.3-0.3 0.2-0.5 0.6-0.2 0.4-0.2 1 0 0.5 0.2 0.9 0.2 0.4 0.5 0.7 0.4 0.2 0.9 0.2zm7.9 2.9q-0.8 0-1.2-0.4-0.4-0.5-0.4-1.3 0-0.7 0.4-1.2 0.5-0.5 1.2-0.5 0.8 0 1.3 0.5 0.4 0.4 0.4 1.2 0 0.8-0.4 1.2-0.5 0.5-1.3 0.5zm4.8 0q-0.8 0-1.3-0.4-0.4-0.5-0.4-1.3 0-0.7 0.5-1.2 0.4-0.5 1.2-0.5 0.8 0 1.2 0.5 0.5 0.4 0.5 1.2 0 0.8-0.5 1.2-0.5 0.5-1.2 0.5zm4.7 0q-0.8 0-1.2-0.4-0.5-0.5-0.5-1.3 0-0.7 0.5-1.2 0.5-0.5 1.2-0.5 0.8 0 1.2 0.5 0.5 0.4 0.5 1.2 0 0.8-0.5 1.2-0.5 0.5-1.2 0.5z"/></svg>