<svg version="1.2" xmlns="http://www.w3.org/2000/svg" viewBox="0 0 17 17" width="17" height="17"><style>.a{fill:#d3c4c1}</style><path fill-rule="evenodd" class="a" d="m8.5 17c-4.7 0-8.5-3.8-8.5-8.5 0-4.7 3.8-8.5 8.5-8.5 4.7 0 8.5 3.8 8.5 8.5 0 4.7-3.8 8.5-8.5 8.5zm0.4-8.9h3.3q0-1.7-0.5-3.3h-2.8zm3.3 0.7h-3.3v3.4h2.8q0.5-1.6 0.5-3.4zm4 0h-3.2q-0.1 1.8-0.5 3.4h2.8c0.5-1 0.8-2.1 0.9-3.4zm-1.4 4.1h-2.5q-0.6 1.6-1.5 2.9c1.7-0.5 3-1.5 4-2.9zm-5.1 3.2q1.1-1.4 1.8-3.2h-2.6v3.3q0.4-0.1 0.8-0.1zm-1.6 0.1v-3.3h-2.7q0.6 1.8 1.7 3.1 0.5 0.1 1 0.2zm-2.2-0.5q-0.8-1.3-1.4-2.8h-2.3c0.9 1.3 2.2 2.3 3.7 2.8zm-4.2-3.5h2.6q-0.4-1.6-0.5-3.4h-3c0 1.3 0.4 2.4 0.9 3.4zm-0.9-4.1h3q0.1-1.8 0.5-3.4h-2.6c-0.5 1-0.8 2.2-0.9 3.4zm1.4-4.1h2.4q0.5-1.5 1.3-2.8c-1.5 0.5-2.8 1.5-3.7 2.8zm5.9-3.3q-0.5 0.1-1 0.2-1.1 1.4-1.7 3.1h2.7zm0 4h-3q-0.5 1.5-0.5 3.3h3.5zm-3.5 4.1q0 1.8 0.5 3.3h3v-3.3zm4.3-8.1v3.2h2.6q-0.6-1.7-1.8-3.1-0.4-0.1-0.8-0.1zm2 0.4q0.9 1.3 1.4 2.8h2.5c-1-1.3-2.3-2.3-3.9-2.8zm4.4 3.6h-2.8q0.5 1.6 0.5 3.3h3.2c0-1.2-0.4-2.3-0.9-3.3z"/></svg>